<?xml version="1.0" encoding="iso-8859-1"?>
<!-- Generator: Adobe Illustrator 16.0.0, SVG Export Plug-In . SVG Version: 6.00 Build 0)  -->
<!DOCTYPE svg PUBLIC "-//W3C//DTD SVG 1.1//EN" "http://www.w3.org/Graphics/SVG/1.1/DTD/svg11.dtd">
<svg version="1.1" id="Capa_1" xmlns="http://www.w3.org/2000/svg" xmlns:xlink="http://www.w3.org/1999/xlink" x="0px" y="0px"
	 width="368.562px" height="368.562px" viewBox="0 0 368.562 368.562" style="enable-background:new 0 0 368.562 368.562;"
	 xml:space="preserve">
    <g>
        <path d="M351.846,309.606c0,0-1.537-27.405-52.007-41.805c-50.471-14.394-58.415-26.337-58.415-26.337
            c-3.339-16.369,9.848-20.2,19.443-20.891l-45.864-92.363c-1.934,0.493-3.963,1.033-6.077,1.625l14.436,28.283
            c1.388,2.72-0.162,6.194-3.53,7.914l-1.015,0.517c-1.147,0.585-2.396,0.897-3.604,0.897c-2.197,0-4.017-1.003-4.87-2.687
            l-15.729-30.829c-53.701,15.268-63.428,15.378-104.342,24.521c-43.553,9.734-77.372,5.639-77.372,5.639s-18.957,99.917,0,99.412
            c18.957-0.517,41.764,8.455,41.764,8.455c54.83,26.901,147.573,20.236,132.201,24.596c-15.372,4.348-20.242,7.938-18.705,24.079
            c1.537,16.141,39.458,6.918,39.458,6.918s-1.537,6.148,5.122,19.215s53.803-17.931,53.803-17.931s-6.659,20.753,13.577,22.026
            c20.242,1.285,19.215-19.984,23.827-20.236c4.611-0.265,15.63,1.537,15.63,1.537C362.097,339.066,351.846,309.606,351.846,309.606z
            "/>
        <path d="M362.354,297.31c4.102-19.984-0.511-30.229-10.761-65.068c-10.25-34.852-24.085-42.021-58.925-69.688
            c-23.202-18.429-25.977-34.563-43.991-37.852l56.409,115.328c3.23,4.624,5.338,9.397,6.659,13.613l7.266,14.855
            c13.896,6.558,18.753,12.166,18.753,12.166c42.532,42.526,5.513,53.16,5.513,53.16C372.599,337.024,362.354,297.31,362.354,297.31z
            "/>
        <polygon points="267.773,220.508 284.448,254.099 309.152,262.47 292.291,228.002 241.454,124.08 232.723,106.222 215.508,115.256 
            221.2,126.722 	"/>
        <path d="M213.855,111.929l17.24-9.041l2.756-1.444l2.744-1.444l0.564-0.297c-2.035-3.843-4.263-7.887-6.593-12.027
            c-1.243-2.207-2.522-4.443-3.825-6.707C208.607,49.584,184.751,13.853,170.976,0l-7.785,4.083
            c3.285,17.66,16.928,52.842,31.159,83.851l-1.654,0.868l-1.643,0.861l-2.071,1.087l5.059,9.926l1.741-0.91l1.646-0.862l1.646-0.868
            c2.882,6.044,5.753,11.851,8.515,17.174l0.751-0.394l2.756-1.444L213.855,111.929z"/>
        <path d="M181.289,82.428c-0.327-0.637-1.126-1.009-2.141-1.009c-0.727,0-1.489,0.189-2.207,0.559l-1.009,0.516
            c-1.102,0.558-1.931,1.45-2.233,2.387c-0.124,0.363-0.201,0.897,0.051,1.384l23.869,46.792l15.462,30.301
            c0.541,1.084,2.618,1.324,4.342,0.444l1.015-0.517c1.76-0.904,2.763-2.633,2.18-3.777l-14.705-28.832L181.289,82.428z"/>
        <path d="M344.797,359.855c3.206-5.452-2.066-22.698-2.066-22.698c-12.664,1.693-23.442,0.288-23.442,0.288
            c10.118,19.186,16.495,24.085,20.062,24.872l0.048,0.096c0.679,1.501,4.563,6.773,6.064,6.089s0.061-7.073-0.63-8.575
            L344.797,359.855z"/>
    </g>
</svg>
