<?xml version="1.0" encoding="UTF-8" standalone="no"?>
<!-- Created with Inkscape (http://www.inkscape.org/) -->

<svg
   xmlns:dc="http://purl.org/dc/elements/1.1/"
   xmlns:cc="http://creativecommons.org/ns#"
   xmlns:rdf="http://www.w3.org/1999/02/22-rdf-syntax-ns#"
   xmlns:svg="http://www.w3.org/2000/svg"
   xmlns="http://www.w3.org/2000/svg"
   xmlns:xlink="http://www.w3.org/1999/xlink"
   xmlns:sodipodi="http://sodipodi.sourceforge.net/DTD/sodipodi-0.dtd"
   xmlns:inkscape="http://www.inkscape.org/namespaces/inkscape"
   width="300"
   height="300"
   id="svg2"
   version="1.1"
   inkscape:version="0.48.3.1 r9886"
   sodipodi:docname="hand_pencil.svg"
   inkscape:export-filename="/home/darrenbeck/Pictures/hand_finished.png"
   inkscape:export-xdpi="240"
   inkscape:export-ydpi="240">
  <defs
     id="defs4">
    <linearGradient
       inkscape:collect="always"
       id="linearGradient4304">
      <stop
         style="stop-color:#ffffff;stop-opacity:1;"
         offset="0"
         id="stop4306" />
      <stop
         style="stop-color:#ffffff;stop-opacity:0;"
         offset="1"
         id="stop4308" />
    </linearGradient>
    <linearGradient
       inkscape:collect="always"
       id="linearGradient4282">
      <stop
         style="stop-color:#ffffff;stop-opacity:1;"
         offset="0"
         id="stop4284" />
      <stop
         style="stop-color:#ffffff;stop-opacity:0;"
         offset="1"
         id="stop4286" />
    </linearGradient>
    <linearGradient
       inkscape:collect="always"
       id="linearGradient4272">
      <stop
         style="stop-color:#ffffff;stop-opacity:1;"
         offset="0"
         id="stop4274" />
      <stop
         style="stop-color:#ffffff;stop-opacity:0;"
         offset="1"
         id="stop4276" />
    </linearGradient>
    <linearGradient
       inkscape:collect="always"
       id="linearGradient3920">
      <stop
         style="stop-color:#ffffff;stop-opacity:0.39591837"
         offset="0"
         id="stop3922" />
      <stop
         style="stop-color:#ffffff;stop-opacity:0;"
         offset="1"
         id="stop3924" />
    </linearGradient>
    <linearGradient
       inkscape:collect="always"
       id="linearGradient3908">
      <stop
         style="stop-color:#b46734;stop-opacity:1;"
         offset="0"
         id="stop3910" />
      <stop
         style="stop-color:#b46734;stop-opacity:0;"
         offset="1"
         id="stop3912" />
    </linearGradient>
    <linearGradient
       id="linearGradient3848">
      <stop
         style="stop-color:#ffb481;stop-opacity:1;"
         offset="0"
         id="stop3850" />
      <stop
         style="stop-color:#da8044;stop-opacity:1;"
         offset="1"
         id="stop3852" />
    </linearGradient>
    <radialGradient
       inkscape:collect="always"
       xlink:href="#linearGradient3848"
       id="radialGradient3854"
       cx="399.11813"
       cy="310.90677"
       fx="399.11813"
       fy="310.90677"
       r="224.76318"
       gradientTransform="matrix(0.66046969,0.72564379,-0.39418479,0.38075671,-11.887223,158.92117)"
       gradientUnits="userSpaceOnUse" />
    <linearGradient
       inkscape:collect="always"
       xlink:href="#linearGradient3908"
       id="linearGradient3914"
       x1="579.89862"
       y1="418.87302"
       x2="487.47729"
       y2="462.36542"
       gradientUnits="userSpaceOnUse"
       gradientTransform="matrix(0.60251149,0,0,0.62068945,-115.83941,356.63341)" />
    <linearGradient
       inkscape:collect="always"
       xlink:href="#linearGradient3920"
       id="linearGradient3926"
       x1="585.33521"
       y1="233.12422"
       x2="346.12698"
       y2="423.40347"
       gradientUnits="userSpaceOnUse"
       gradientTransform="matrix(0.60251149,0,0,0.62068945,-115.83941,356.63341)" />
    <filter
       inkscape:collect="always"
       id="filter4238"
       x="-0.2468491"
       width="1.4936982"
       y="-0.471302"
       height="1.9426039"
       color-interpolation-filters="sRGB">
      <feGaussianBlur
         inkscape:collect="always"
         stdDeviation="2.9359188"
         id="feGaussianBlur4240" />
    </filter>
    <filter
       inkscape:collect="always"
       id="filter4260"
       x="-0.55640835"
       width="2.1128166"
       y="-0.38974801"
       height="1.779496"
       color-interpolation-filters="sRGB">
      <feGaussianBlur
         inkscape:collect="always"
         stdDeviation="2.4794938"
         id="feGaussianBlur4262" />
    </filter>
    <linearGradient
       inkscape:collect="always"
       xlink:href="#linearGradient4272"
       id="linearGradient4278"
       x1="545.92023"
       y1="342.30826"
       x2="537.76538"
       y2="362.69534"
       gradientUnits="userSpaceOnUse"
       gradientTransform="matrix(0.60251149,0,0,0.62068945,-115.83941,356.63341)" />
    <linearGradient
       inkscape:collect="always"
       xlink:href="#linearGradient4282"
       id="linearGradient4288"
       x1="425.7475"
       y1="307.21735"
       x2="421.26257"
       y2="327.71985"
       gradientUnits="userSpaceOnUse"
       gradientTransform="matrix(0.60251149,0,0,0.62068945,-115.83941,356.63341)" />
    <linearGradient
       inkscape:collect="always"
       xlink:href="#linearGradient4304"
       id="linearGradient4310"
       x1="252.79956"
       y1="272.53918"
       x2="246.00388"
       y2="287.94278"
       gradientUnits="userSpaceOnUse"
       gradientTransform="matrix(0.60251149,0,0,0.62068945,-115.83941,356.63341)" />
  </defs>
  <sodipodi:namedview
     id="base"
     pagecolor="#ffffff"
     bordercolor="#666666"
     borderopacity="1.0"
     inkscape:pageopacity="0.0"
     inkscape:pageshadow="2"
     inkscape:zoom="1.99"
     inkscape:cx="157.53769"
     inkscape:cy="150"
     inkscape:document-units="px"
     inkscape:current-layer="layer2"
     showgrid="false"
     inkscape:window-width="1280"
     inkscape:window-height="776"
     inkscape:window-x="0"
     inkscape:window-y="24"
     inkscape:window-maximized="1" />
  <metadata
     id="metadata7">
    <rdf:RDF>
      <cc:Work
         rdf:about="">
        <dc:format>image/svg+xml</dc:format>
        <dc:type
           rdf:resource="http://purl.org/dc/dcmitype/StillImage" />
        <dc:title></dc:title>
      </cc:Work>
    </rdf:RDF>
  </metadata>
  <g
     inkscape:label="Layer 1"
     inkscape:groupmode="layer"
     id="layer1"
     transform="translate(0,-752.3622)"
     style="display:inline" />
  <g
     inkscape:groupmode="layer"
     id="layer4"
     inkscape:label="PencilLower"
     transform="translate(0,-465)">
    <path
       style="fill:#000000;fill-opacity:1;stroke:none;display:inline"
       d="m 11.856913,523.39559 c 4.876542,5.62433 9.422235,11.78961 14.497937,17.08815 10.218262,2.86066 20.431105,5.74447 30.652767,8.59312 1.049074,-3.91648 1.552772,-8.43473 -0.527173,-12.10381 6.290891,0.45279 12.224798,-2.00104 17.887062,-4.49972 -21.593913,-3.78074 -43.177343,-7.61876 -64.7135047,-11.73482 0.7343077,0.88484 1.4686147,1.76967 2.2029267,2.65459 z"
       id="path4290"
       inkscape:connector-curvature="0" />
    <path
       style="fill:#ffb380;fill-opacity:1;stroke:none;display:inline"
       d="m 13.870023,522.86168 13.895424,16.70052 29.447744,8.26279 c 0.141533,-0.58828 0.275249,-1.20161 0.376758,-1.86022 0.489546,-3.19245 0.312343,-7.0099 -2.240603,-9.6403 l -0.640203,-0.65861 0.903786,0.15093 c 5.119629,0.78467 10.035776,-0.4022 14.064874,-1.98089 0.484618,-0.20152 0.955127,-0.40218 1.412121,-0.57798 -8.294015,-1.46301 -31.744825,-5.60573 -31.744825,-5.60573 l -25.474941,-4.77114 z"
       id="path3880"
       inkscape:connector-curvature="0" />
    <path
       style="fill:#ffe8d8;fill-opacity:1;stroke:none"
       d="m 27.467382,538.4496 -2.183723,-7.31107 1.364821,-0.56342 0,-1.96579 3.735879,-2.28249 -16.292287,-3.34339 z"
       id="path4294"
       inkscape:connector-curvature="0"
       sodipodi:nodetypes="ccccccc" />
    <path
       style="fill:#000000;stroke:none"
       d="m 16.569305,526.64035 c 0,0 6.562537,-2.78528 2.316194,-3.37854 -4.246345,-0.59344 -6.562535,-1.19149 -6.562535,-1.19149 z"
       id="path4296"
       inkscape:connector-curvature="0" />
    <path
       style="fill:#b2632e;fill-opacity:1;stroke:none"
       d="m 38.931921,537.60601 -13.102336,-2.52887 1.910748,4.2181 8.734889,2.52887 z"
       id="path4298"
       inkscape:connector-curvature="0" />
    <path
       style="fill:#ffa162;fill-opacity:1;stroke:none"
       d="m 41.115644,530.01384 -12.829369,-1.97077 3.548549,-1.9658 12.556403,2.24734 z"
       id="path4300"
       inkscape:connector-curvature="0" />
    <path
       style="fill:url(#linearGradient4310);fill-opacity:1;stroke:none"
       d="m 28.832205,528.60769 10.099716,2.24724 -4.09449,4.78127 -8.461922,-2.2524 1.910771,-1.68923 z"
       id="path4302"
       inkscape:connector-curvature="0"
       sodipodi:nodetypes="cccccc" />
  </g>
  <g
     inkscape:groupmode="layer"
     id="layer2"
     inkscape:label="OutLine"
     style="display:inline"
     transform="translate(0,-465)">
    <path
       style="fill:#482915;fill-opacity:1;stroke:none"
       d="m 88.882708,479.9565 c -7.627008,-0.45279 -11.326411,7.80219 -15.375006,12.92785 -8.450365,10.63224 -19.638384,18.702 -29.267336,28.19299 -1.450382,2.54902 -1.222325,6.05474 -3.991661,7.66156 -4.645673,6.4403 -8.488045,13.63071 -14.602897,18.85233 -6.503967,6.43626 -15.425716,9.63525 -13.867034,19.74515 1.744172,9.47093 12.608141,18.92528 19.171947,24.50142 10.737648,8.49305 26.352117,12.77943 34.560125,24.1292 13.069518,20.20376 19.43201,41.50509 40.038764,54.82707 10.26206,4.61533 32.65954,7.88874 48.12927,17.05952 9.09827,8.11649 21.77977,34.95513 30.9385,42.92935 8.87281,5.78572 9.66878,5.98476 19.74007,6.0255 28.68109,-0.72378 57.48464,-5.16476 84.57787,-14.95745 4.77622,-2.12667 8.90012,-8.37599 5.74268,-13.53878 -5.42399,-9.88967 -15.3043,-15.70258 -23.32311,-23.12728 -9.95616,-8.09084 -18.95098,-17.41239 -26.31182,-28.04669 -11.75432,-13.7253 -22.71068,-28.66662 -29.38821,-45.76995 -5.83123,-17.05744 -9.6724,-34.8193 -14.09488,-52.35698 -4.08756,-16.92427 -7.63026,-34.09492 -12.82986,-50.65815 -5.41475,-10.11547 -19.38072,-14.33914 -29.0335,-8.24324 -21.03019,-6.49562 -42.72078,-11.32961 -63.376687,-19.20325 -2.421567,-0.63373 -4.925895,-1.05583 -7.437225,-0.95017 z m 8.943523,51.14832 c 3.176409,1.90542 7.994109,2.01606 8.926619,6.35687 1.99107,2.96125 2.67613,7.08887 0.0358,9.91686 -4.86978,9.04712 -15.539378,12.91276 -25.1172,11.25072 -3.078653,-0.4528 -7.103475,-1.32734 -9.263622,-2.67972 10.752719,-5.40059 17.196543,-16.14852 24.834779,-25.15739 l 0.53543,0.30186 0.04829,0.0171 z"
       id="path3928"
       inkscape:connector-curvature="0"
       sodipodi:nodetypes="ccccccccccccccccccccccccccccccc" />
    <path
       style="fill:#b46734;fill-opacity:1;stroke:none"
       d="m 87.771824,483.48682 c -6.192904,0.0429 -7.997261,7.36639 -11.746439,11.08024 -8.233518,10.00536 -17.900458,18.52002 -27.906346,26.54904 -1.666776,1.78982 -3.094465,4.37897 -2.391211,6.88571 -5.447631,3.07189 -6.821425,10.06566 -11.259432,14.27578 -5.580493,7.60873 -14.218841,13.19687 -17.679948,22.32537 -2.122778,6.0532 8.938953,12.5649 14.365433,15.7438 12.762342,10.54031 28.539311,18.21405 40.371089,29.78652 11.118689,16.04141 9.889146,28.78354 22.870975,43.27902 16.554605,19.87643 61.704215,19.16977 69.420995,26.96501 15.14384,18.3974 22.3973,46.02357 39.28478,49.26036 25.43039,4.87164 50.23622,-1.01056 75.07627,-8.29401 4.74415,-1.56857 10.94364,-2.8556 13.31806,-7.81378 0.58828,-5.11055 -4.39069,-8.61473 -7.25486,-12.02449 -13.4125,-12.86148 -29.61649,-22.83211 -39.78935,-38.87806 -7.65645,-9.53224 -16.21106,-18.26815 -21.86806,-29.28303 -6.09844,-9.24969 -11.36403,-19.16458 -13.85921,-30.15177 -8.78196,-30.11161 -15.00639,-61.0567 -22.95047,-91.42567 -3.87682,-9.98221 -17.58678,-14.50602 -26.05862,-7.81686 -20.15284,-6.54389 -41.06527,-10.45078 -60.751992,-18.41445 -3.60505,-1.18653 -7.347162,-2.27247 -11.191654,-2.04624 z m 10.073236,34.00239 c 4.45305,2.64952 9.43144,4.2885 14.29083,6.05166 2.85582,7.86162 6.71227,16.98609 2.54182,25.09906 -6.75723,14.47035 -25.027093,19.64224 -39.106771,14.8771 -6.001211,-1.79985 -11.551739,-4.92705 -16.474922,-8.80632 2.99e-4,-6.71625 -0.735367,-13.51304 -3.087874,-19.80353 7.449318,2.85568 15.772525,1.22168 22.500041,-2.67466 7.178763,-3.6148 13.793014,-8.64741 18.922625,-14.99372 z"
       id="path3838"
       inkscape:connector-curvature="0"
       sodipodi:nodetypes="ccccccccccscccccccccccccccccccc" />
    <path
       inkscape:connector-curvature="0"
       id="path3842"
       d="m 195.78755,719.99803 c 0,0 -18.30377,-48.44493 -22.89605,-53.96493 -10.11787,-12.16185 -57.93931,2.84192 -73.225369,-17.9701 -15.284433,-20.80981 -17.807147,-36.57757 -22.174589,-41.63986 -4.367445,-5.06117 -38.029128,-25.89339 -46.218086,-32.6419 -8.18896,-6.74893 -11.722071,-11.71066 -6.808697,-16.77243 4.913377,-5.06168 14.740129,-15.74726 18.015711,-21.93373 3.275572,-6.18637 8.188955,-8.43619 11.464542,1.12616 3.275572,9.56097 -6.499106,13.10253 -6.499106,13.10253 0,3.86187 27.244472,25.82835 47.989833,17.26747 19.913481,-8.2176 26.204691,-22.49629 22.383171,-33.74391 -3.82154,-11.24823 -3.82154,-11.24823 -3.82154,-11.24823 0,0 -15.286064,-5.06168 -16.923848,-7.87363 -9.280829,12.9354 -25.658745,20.24647 -32.209915,20.24647 -6.551169,0 -13.648294,-3.37349 -16.377949,-6.18638 -2.72966,-2.81041 4.913379,-7.87371 9.82678,-11.81079 4.913378,-3.93656 21.291299,-20.24595 24.020953,-25.87029 2.729661,-5.6238 7.643021,-5.6238 23.475019,0.56343 15.83199,6.18637 51.86341,14.06009 54.59307,16.3094 5.4593,-6.74903 20.74536,-4.49964 24.02093,8.43627 3.27557,12.9354 21.29132,93.92084 27.84249,105.16898 6.55114,11.24764 13.64824,24.74568 23.47498,35.43126 9.82675,10.68559 6.55118,9.56089 17.46978,21.37108 10.91862,11.81079 33.30179,25.87088 36.03142,34.8692 -26.75222,1.12121 -81.1372,21.36857 -93.45353,7.76393 z"
       style="fill:url(#radialGradient3854);fill-opacity:1;stroke:none"
       sodipodi:nodetypes="cssssssscssccssssscsssscc" />
    <path
       style="fill:#b46734;fill-opacity:1;stroke:none"
       d="m 57.76653,555.60266 c 0,0 -8.488402,0.19553 -12.157399,-8.77339 3.548528,-10.68609 5.879192,-16.53484 7.516993,-13.44144 1.637786,3.09195 6.278188,17.15306 4.640406,22.21483 z"
       id="path3900"
       inkscape:connector-curvature="0"
       sodipodi:nodetypes="ccsc" />
    <path
       style="fill:#b46734;fill-opacity:1;stroke:none"
       d="m 97.346499,514.5476 c 0,0 -3.275575,-4.78127 -4.913375,-10.12302 -7.370062,13.49752 -38.488108,25.86985 -40.944801,26.15138 10.645649,4.49964 6.551174,4.49964 14.740129,3.65502 6.983098,-0.71863 19.653507,-4.78125 31.118047,-19.6839 z"
       id="path3902"
       inkscape:connector-curvature="0"
       sodipodi:nodetypes="cccsc" />
    <path
       style="fill:#b46734;fill-opacity:1;stroke:none"
       d="m 114.48787,576.40218 c 18.16753,-3.9165 30.34607,-21.88099 21.61972,-39.64086 -4.99224,-10.16016 -21.29131,-40.49294 -18.83461,-26.99499 2.4567,13.49754 -2.72967,8.71731 -2.72967,8.71731 l -20.199434,-8.71731 c 0,0 1.091821,6.18596 4.913374,7.59219 3.82154,1.40768 14.46717,4.49963 14.46717,4.49963 0,0 6.00524,14.34112 4.36745,19.40288 -1.6378,5.06177 -12.01049,20.24647 -16.37793,21.6527 -4.367449,1.4077 -31.911347,0.73923 -31.911347,0.73923 12.508618,4.39407 13.897698,19.38469 44.685277,12.74939 z"
       id="path3904"
       inkscape:connector-curvature="0"
       sodipodi:nodetypes="sssccscsscs" />
    <path
       style="fill:url(#linearGradient3914);fill-opacity:1;stroke:none"
       d="m 160.94742,513.70393 c 0,0 -7.09709,-8.99875 -12.01047,-2.81042 -4.91338,6.18647 0.546,10.68559 0.546,10.68559 0,0 36.03142,94.48349 40.39887,107.98094 4.36743,13.49795 13.10233,28.12018 20.74536,34.86912 7.64303,6.7485 46.40411,50.05339 50.22562,51.74065 3.82148,1.68923 29.65789,0.53769 28.93433,-3.93656 -1.09197,-6.74902 -24.29393,-24.74568 -30.29917,-30.37 -6.00523,-5.62382 -21.56425,-21.93373 -31.391,-35.99382 -9.82675,-14.06009 -17.74276,-28.96325 -19.92649,-38.52414 -2.18369,-9.56089 -21.56424,-83.5168 -22.6561,-88.57806 -1.09192,-5.06176 -3.27556,-11.81079 -9.82676,-11.81079 -6.55115,0 -14.74012,-1.12109 -14.74012,6.74903 z"
       id="path3906"
       inkscape:connector-curvature="0"
       sodipodi:nodetypes="cscsssssssssc" />
    <path
       style="opacity:0.61224491;fill:url(#linearGradient3926);fill-opacity:1;stroke:none"
       d="m 102.53283,581.75449 c 0,0 26.75062,-0.56343 32.75586,-19.12178 6.00523,-18.55929 13.64826,-37.11851 18.01572,-12.37284 4.36744,24.7461 25.65872,75.36207 30.02617,87.17234 4.36744,11.81019 -26.7506,-6.74851 -41.49073,-20.80911 -14.74013,-14.0595 -64.965744,-33.18136 -39.30702,-34.86861 z"
       id="path3916"
       inkscape:connector-curvature="0" />
    <path
       style="fill:#6f3f20;fill-opacity:1;stroke:none"
       d="m 54.490939,534.2315 c 0,0 7.507044,9.71491 5.350308,21.24527 -3.548529,-0.56341 -14.277133,-5.11768 -14.550108,-7.93065 -0.272809,-2.81041 4.326945,-13.87676 5.41882,-14.72084 -2.72966,-2.81042 -3.043115,-3.37349 -3.043115,-3.37349 l 0.54596,-1.96579 c 0,0 4.09449,4.21809 7.370038,4.21809 3.275573,0 16.650886,-3.09194 21.018327,-4.49964 4.367447,-1.40768 5.732277,3.09195 5.732277,3.09195 0,0 -6.278204,4.78126 -14.467169,4.78126 -5.18634,0 -13.375274,-0.8447 -13.375274,-0.8447 z"
       id="path4314"
       inkscape:connector-curvature="0"
       sodipodi:nodetypes="ccscccsscscc" />
    <path
       style="opacity:0.45306121;fill:#000000;stroke:none"
       d="m 83.417086,93.718593 c 0,0 24.623124,17.336687 27.135684,20.854277 43.12961,36.81828 97.0555,64.3248 138.19095,83.41708 -9.60588,-12.62096 -29.15451,-36.44094 -31.65829,-47.73869 -11.05527,-0.50251 -78.39196,-43.7186 -83.41709,-45.22613 -5.02512,-1.50754 -20.1005,-8.040205 -20.1005,-8.040205 0,0 -18.885724,-2.162068 -21.105528,-2.512563 -4.77387,-0.753769 -9.045226,-0.753769 -9.045226,-0.753769 z"
       id="path4362"
       inkscape:connector-curvature="0"
       transform="translate(0,465)"
       sodipodi:nodetypes="ccccscsc" />
  </g>
  <g
     inkscape:groupmode="layer"
     id="layer3"
     inkscape:label="Pencil"
     transform="translate(0,-465)">
    <path
       style="fill:#000000;fill-opacity:1;stroke:none"
       d="m 74.567566,533.78206 c -5.974214,3.13216 -13.25643,1.62884 -19.718153,0.88482 3.308709,4.55495 3.570637,10.97364 4.198734,16.19629 62.317593,17.4828 123.468863,34.20297 185.789933,51.67222 16.5816,-7.8702 23.8888,-18.70509 17.30825,-37.5081 C 199.63914,553.81987 139.34937,544.08045 76.817797,533.01831 z"
       id="path3891"
       inkscape:connector-curvature="0"
       sodipodi:nodetypes="ccccccc" />
    <path
       style="fill:#ffb380;stroke:none"
       d="m 72.310603,535.07458 c -6.168977,1.76469 -11.578425,-0.59344 -17.623422,-0.87481 1.681125,2.39818 4.411809,11.46639 3.959452,13.88112 l 184.516707,48.15646 c 0,0 25.03685,-7.38593 13.45592,-27.26999 C 234.667,564.97549 117.2777,543.01509 72.310622,535.07611 z"
       id="path3857"
       inkscape:connector-curvature="0"
       sodipodi:nodetypes="cccccc" />
    <path
       style="fill:#000000;stroke:none"
       d="m 212.70555,557.8434 c -11.31563,0.70405 -15.78116,7.17685 -17.23994,13.26221 -1.77483,7.40462 1.15361,12.26573 5.23329,17.55929 l 43.8777,12.15665 c 0,0 27.38277,-14.64178 15.80185,-34.52585 -6.80817,-1.23677 -24.6291,-4.36387 -47.6729,-8.4523 z"
       id="path3865"
       inkscape:connector-curvature="0"
       sodipodi:nodetypes="cscccc" />
    <path
       style="fill:#d35f5f;stroke:none"
       d="m 245.63239,598.34919 c 2.84443,1.55065 24.75521,-11.80136 14.11287,-30.70324 -23.07087,-0.70836 -15.47987,25.66961 -14.11287,30.70324 z"
       id="path3859"
       inkscape:connector-curvature="0"
       sodipodi:nodetypes="ccc" />
    <path
       style="fill:#de8787;stroke:none"
       d="m 224.63639,592.75231 18.43019,4.82644 c 0,0 -7.49705,-24.77885 9.05887,-30.57109 -22.80343,-2.8959 -22.49105,-2.57415 -22.49105,-2.57415 0,0 -12.80741,8.3669 -4.99801,28.3188 z"
       id="path3861"
       inkscape:connector-curvature="0"
       sodipodi:nodetypes="ccccc" />
    <path
       style="fill:#b3b3b3;stroke:none"
       d="m 222.13737,591.78652 -19.99205,-4.82645 c 0,0 -14.36928,-18.66486 5.93513,-26.70993 17.49305,2.89582 19.67968,3.53933 19.67968,3.53933 0,0 -14.36928,8.04464 -5.62276,27.99602 z"
       id="path3863"
       inkscape:connector-curvature="0" />
    <path
       style="fill:#b2632e;fill-opacity:1;stroke:none"
       d="m 57.71685,542.43444 137.38435,33.1678 c 0,0 0.19621,5.44939 4.56373,10.23013 -25.65874,-6.74903 -140.982988,-37.47243 -140.982988,-37.47243 0.04413,-1.67919 -0.570069,-3.95165 -0.965082,-5.9255 z"
       id="path3885"
       inkscape:connector-curvature="0"
       sodipodi:nodetypes="ccccc" />
    <path
       style="fill:#ffa162;fill-opacity:1;stroke:none"
       d="M 204.37939,559.55278 72.845858,534.61209 c 0,0 -3.856965,0.578 -15.6281,0.4022 14.194197,2.8104 140.852942,29.01505 140.852942,29.01505 0,0 0.84936,-3.08191 6.30869,-4.48463 z"
       id="path3887"
       inkscape:connector-curvature="0"
       sodipodi:nodetypes="ccccc" />
    <path
       style="fill:url(#linearGradient4278);fill-opacity:1;stroke:none"
       d="m 198.39003,574.95873 20.07362,3.97678 c 0,0 -0.35871,-5.78015 2.72966,-8.96163 -11.96699,-2.38806 -20.87315,-3.46395 -20.87315,-3.46395 0,0 -3.95393,4.14271 -1.93021,8.44777 z"
       id="path3898"
       inkscape:connector-curvature="0"
       sodipodi:nodetypes="ccccc" />
    <path
       style="opacity:0.28979594;fill:#ffffff;stroke:none;filter:url(#filter4238)"
       d="m 433.79155,227.84334 24.01143,4.30393 c 0,0 -0.45305,-9.51396 3.17132,-12.23223 -14.72399,-0.9061 -26.05014,-2.71828 -26.05014,-2.71828 0,0 -4.75698,6.34264 -1.13261,10.64658 z"
       id="path3934"
       inkscape:connector-curvature="0"
       transform="matrix(0.60251149,0,0,0.62068945,-37.089035,439.35036)" />
    <path
       sodipodi:type="arc"
       style="opacity:0.26530612;fill:#ffffff;fill-opacity:1;stroke:none;filter:url(#filter4260)"
       id="path4020"
       sodipodi:cx="611.23114"
       sodipodi:cy="358.31345"
       sodipodi:rx="4.4849248"
       sodipodi:ry="8.1689701"
       d="m 615.71606,358.31345 a 4.4849248,8.1689701 0 1 1 -8.96984,0 4.4849248,8.1689701 0 1 1 8.96984,0 z"
       transform="matrix(0.54496178,0.26472918,-0.25697613,0.56140345,5.3240568,218.61032)" />
    <path
       style="fill:url(#linearGradient4288);fill-opacity:1;stroke:none"
       d="m 71.578761,538.57078 124.881109,26.04779 c 0,0 -3.08827,6.36286 -3.08827,8.35181 -8.49269,-1.78982 -133.373802,-31.61587 -133.373802,-31.61587 0,0 2.123183,-4.77114 11.580943,-2.78528 z"
       id="path4280"
       inkscape:connector-curvature="0" />
  </g>
</svg>
